<?xml version="1.0" standalone="no"?><!DOCTYPE svg PUBLIC "-//W3C//DTD SVG 1.1//EN" "http://www.w3.org/Graphics/SVG/1.1/DTD/svg11.dtd"><svg t="1689910061802" class="icon" viewBox="0 0 1024 1024" version="1.1" xmlns="http://www.w3.org/2000/svg" p-id="1394" xmlns:xlink="http://www.w3.org/1999/xlink" width="24" height="24"><path d="M297.3 285.1c0 120.8 97.9 218.7 218.7 218.7 120.8 0 218.7-97.9 218.7-218.7 0-120.8-97.9-218.7-218.7-218.7-120.8-0.1-218.7 97.9-218.7 218.7z m0 0" fill="#000000" p-id="1395"></path><path d="M935.2 711.8C920.3 599.5 842.4 496.7 740.1 481H695c-37.9 61.7-105.5 103.2-183.3 103.2-77.8 0-145.4-41.5-183.4-103.2h-44.7c-90.1 15.7-179.3 113.3-194.2 225.7C87.5 716.3 73 826 73.2 830.8c0.7 46.1 28.2 85.6 67 107.5 20.1 11.6 43 18.7 67 18.7h609.2c24 0 46.9-7.2 67-18.7 38.8-22 66.4-61.5 67-107.5 0.3-4.9-13.3-109.5-15.2-119z m0 0" fill="#000000" p-id="1396"></path></svg>