<?xml version="1.0" standalone="no"?><!DOCTYPE svg PUBLIC "-//W3C//DTD SVG 1.1//EN" "http://www.w3.org/Graphics/SVG/1.1/DTD/svg11.dtd"><svg t="1689910077344" class="icon" viewBox="0 0 1024 1024" version="1.1" xmlns="http://www.w3.org/2000/svg" p-id="1687" xmlns:xlink="http://www.w3.org/1999/xlink" width="24" height="24"><path d="M912.955077 882.786462a37.139692 37.139692 0 0 1-74.279385 0v-0.433231h-1.063384a294.754462 294.754462 0 0 0-285.538462-255.035077c-3.190154 0.118154-6.301538 0.472615-9.531077 0.472615s-6.321231-0.354462-9.491692-0.472615a294.754462 294.754462 0 0 0-285.341539 255.035077h-0.905846v0.433231a37.139692 37.139692 0 0 1-74.279384 0l-0.33477-3.387077a35.446154 35.446154 0 0 1 2.678154-13.410462A365.449846 365.449846 0 0 1 395.815385 583.384615a253.164308 253.164308 0 0 1-113.644308-210.530461A257.732923 257.732923 0 0 1 542.641231 117.937231a257.732923 257.732923 0 0 1 260.430769 254.916923 253.164308 253.164308 0 0 1-113.565538 210.471384 365.312 365.312 0 0 1 221.518769 286.129231 35.268923 35.268923 0 0 1 1.595077 9.944616zM728.615385 372.932923a186.072615 186.072615 0 0 0-372.04677 0 186.072615 186.072615 0 0 0 372.04677 0z" fill="#C3C6CD" p-id="1688"></path></svg>